<svg xmlns="http://www.w3.org/2000/svg" viewBox="0 0 192 192">
  <rect width="192" height="192" rx="40" fill="#111111" />
  <path
    d="M38 114c0-5.5 4.5-10 10-10h8l13-27c3.3-6.8 10.2-11 17.8-11h36.7c7.5 0 14.4 4.2 17.8 11l13 27h8c5.5 0 10 4.5 10 10v20h-12a16 16 0 0 1-32 0H74a16 16 0 0 1-32 0H38v-20Z"
    fill="#f4f0e8"
  />
  <circle cx="58" cy="134" r="10" fill="#b64926" />
  <circle cx="134" cy="134" r="10" fill="#b64926" />
  <path d="M79 80h38c4 0 7.6 2.3 9.3 5.9L133 100H59l7.7-14.1A10.7 10.7 0 0 1 76 80h3Z" fill="#b64926" />
  <text x="96" y="48" text-anchor="middle" font-size="18" font-family="Segoe UI, Arial, sans-serif" font-weight="700" fill="#f4f0e8">MC</text>
</svg>
