<svg xmlns="http://www.w3.org/2000/svg" viewBox="0 0 512 512" role="img" aria-labelledby="title desc">
  <title id="title">Red Line Pecas e Acessorios Automotivos</title>
  <desc id="desc">Emblema Red Line para marketplace automotivo</desc>
  <defs>
    <linearGradient id="outerRed" x1="0" x2="1" y1="0" y2="1">
      <stop offset="0%" stop-color="#ff352f" />
      <stop offset="100%" stop-color="#9b0f12" />
    </linearGradient>
    <linearGradient id="innerRed" x1="0" x2="1" y1="0" y2="1">
      <stop offset="0%" stop-color="#ef2b2f" />
      <stop offset="100%" stop-color="#c11418" />
    </linearGradient>
    <linearGradient id="bannerRed" x1="0" x2="1" y1="0" y2="0">
      <stop offset="0%" stop-color="#b31115" />
      <stop offset="50%" stop-color="#e12622" />
      <stop offset="100%" stop-color="#9b0f12" />
    </linearGradient>
    <filter id="shadow" x="-20%" y="-20%" width="140%" height="140%">
      <feDropShadow dx="0" dy="18" stdDeviation="14" flood-color="#000000" flood-opacity="0.42" />
    </filter>
  </defs>

  <g filter="url(#shadow)">
    <path d="M256 36 430 108 396 366 256 474 116 366 82 108Z" fill="url(#outerRed)" />
    <path d="M256 62 406 124 376 352 256 446 136 352 106 124Z" fill="#f7f2ea" />
    <path d="M256 84 386 138 360 340 256 420 152 340 126 138Z" fill="#111111" />

    <path d="M128 120 256 68 384 120 354 120 256 88 158 120Z" fill="#f7f2ea" opacity="0.96" />
    <path d="M114 126 256 52 398 126 370 126 256 78 142 126Z" fill="url(#outerRed)" />

    <text x="226" y="248" text-anchor="middle" font-size="182" font-family="Arial Black, Segoe UI, sans-serif" font-weight="900" fill="url(#innerRed)" letter-spacing="-12">R</text>
    <text x="314" y="310" text-anchor="middle" font-size="196" font-family="Arial Black, Segoe UI, sans-serif" font-weight="900" fill="url(#innerRed)" letter-spacing="-10">L</text>

    <g transform="translate(316 126)">
      <rect x="0" y="0" width="24" height="24" fill="#f7f2ea" />
      <rect x="24" y="0" width="24" height="24" fill="#121212" />
      <rect x="48" y="0" width="24" height="24" fill="#f7f2ea" />
      <rect x="72" y="0" width="24" height="24" fill="#121212" />
      <rect x="0" y="24" width="24" height="24" fill="#121212" />
      <rect x="24" y="24" width="24" height="24" fill="#f7f2ea" />
      <rect x="48" y="24" width="24" height="24" fill="#121212" />
      <rect x="72" y="24" width="24" height="24" fill="#f7f2ea" />
      <rect x="0" y="48" width="24" height="24" fill="#f7f2ea" />
      <rect x="24" y="48" width="24" height="24" fill="#121212" />
      <rect x="48" y="48" width="24" height="24" fill="#f7f2ea" />
      <rect x="72" y="48" width="24" height="24" fill="#121212" />
    </g>

    <path d="M130 164h88c24 0 40 10 44 30h-124c-9 0-16-5-16-14 0-9 4-16 8-16Zm-6 34h134c5 0 8 4 8 8s-3 8-8 8H124l-36 8 18-16Z" fill="#e7dfd2" opacity="0.95" />
    <path d="M148 282c17-30 52-52 93-58l42-2c44 1 83 18 109 50l-24 0c-6-17-20-28-37-28-18 0-34 11-40 26h-98c-8-15-22-24-39-24-17 0-31 11-37 26Zm60 0h68c6-18 18-34 36-46l-40 2c-31 3-51 13-64 44Z" fill="#0c0c0d" />
    <path d="M154 286c6-18 18-30 37-30 16 0 28 10 34 26h70c7-18 21-28 38-28 18 0 31 10 36 28h23c-7-12-18-22-32-31-18-11-45-18-74-18l-43 2c-24 4-47 12-64 25-10 7-19 16-25 26Z" fill="#d62522" opacity="0.92" />

    <path d="M120 370 156 354 142 386Z" fill="#d51c19" />
    <path d="M142 398 198 374 182 416Z" fill="#d51c19" />
    <path d="M392 370 356 354 370 386Z" fill="#d51c19" />
    <path d="M370 398 314 374 330 416Z" fill="#d51c19" />

    <path d="M132 320 382 320 370 382 256 424 142 382Z" fill="#0d0d0f" opacity="0.9" />
    <path d="M122 300 390 300 380 376 256 416 132 376Z" fill="url(#bannerRed)" />
    <path d="M146 314 366 314 358 366 256 398 154 366Z" fill="none" stroke="#f7f2ea" stroke-width="6" opacity="0.35" />
    <text x="256" y="346" text-anchor="middle" font-size="34" font-family="Segoe UI, Arial, sans-serif" font-weight="900" letter-spacing="3" fill="#f7f2ea">RED LINE</text>
    <text x="256" y="378" text-anchor="middle" font-size="20" font-family="Segoe UI, Arial, sans-serif" font-weight="700" letter-spacing="1.8" fill="#f7f2ea">AUTO PARTS</text>
  </g>
</svg>
